<?xml version="1.0" encoding="UTF-8"?>
<svg width="321px" height="118px" viewBox="0 0 321 118" version="1.1" xmlns="http://www.w3.org/2000/svg" xmlns:xlink="http://www.w3.org/1999/xlink">
    <!-- Generator: Sketch 52.6 (67491) - http://www.bohemiancoding.com/sketch -->
    <title>nebula-logo-black</title>
    <desc>Created with Sketch.</desc>
    <g id="nebula-logo-black" stroke="none" stroke-width="1" fill="none" fill-rule="evenodd">
        <g id="Group-2-Copy-3" transform="translate(9.000000, 6.000000)" fill="#232222">
            <path d="M48.774,98 L24.182,39.7 L23.97,39.7 L13.688,98 L0.65,98 L13.9,22.952 L30.86,22.952 L55.028,79.45 L55.24,79.45 L65.204,22.952 L78.242,22.952 L64.992,98 L48.774,98 Z M87.1280002,76.482 C87.0573332,76.8353351 87.0220002,77.2239979 87.0220002,77.648 C87.0220002,79.3440085 87.3576635,80.8986596 88.0290002,82.312 C88.7003369,83.7253404 89.6366609,84.9443282 90.8380002,85.969 C92.0393396,86.9936718 93.4526588,87.8063303 95.0780002,88.407 C96.7033417,89.0076697 98.4699907,89.308 100.378,89.308 C103.628683,89.308 106.402322,88.7073393 108.699,87.506 C110.995678,86.3046607 113.062658,84.6793436 114.9,82.63 L122.002,89.308 C115.712635,96.0920339 108.045379,99.484 99.0000002,99.484 C95.5373162,99.484 92.357348,98.9716718 89.4600002,97.947 C86.5626524,96.9223282 84.0540108,95.4560095 81.9340002,93.548 C79.8139896,91.6399905 78.1533396,89.2903473 76.9520002,86.499 C75.7506609,83.7076527 75.1500002,80.510018 75.1500002,76.906 C75.1500002,72.5246448 75.8919928,68.4436856 77.3760002,64.663 C78.8600076,60.8823144 80.926987,57.5786808 83.5770002,54.752 C86.2270135,51.9253192 89.3716487,49.7170079 93.0110002,48.127 C96.6503518,46.536992 100.625312,45.742 104.936,45.742 C107.974682,45.742 110.783654,46.1659958 113.363,47.014 C115.942346,47.8620042 118.185991,49.1339915 120.094,50.83 C122.00201,52.5260085 123.485995,54.6459873 124.546,57.19 C125.606006,59.7340127 126.136,62.701983 126.136,66.094 C126.136,67.2246723 126.030001,68.7969899 125.818,70.811 C125.605999,72.8250101 125.288002,74.7153245 124.864,76.482 L87.1280002,76.482 Z M114.688,67.578 C114.758667,67.0833309 114.811667,66.6240021 114.847,66.2 C114.882334,65.7759979 114.9,65.3520021 114.9,64.928 C114.9,62.1719862 113.928343,59.8400095 111.985,57.932 C110.041657,56.0239905 107.303351,55.07 103.77,55.07 C101.579323,55.07 99.6006757,55.4586628 97.8340002,56.236 C96.0673247,57.0133372 94.5303401,58.0203271 93.2230002,59.257 C91.9156604,60.4936728 90.8380045,61.8539926 89.9900002,63.338 C89.141996,64.8220074 88.5766683,66.2353266 88.2940002,67.578 L114.688,67.578 Z M144.88,55.282 C146.929344,52.3139852 149.543985,49.9820085 152.724,48.286 C155.904016,46.5899915 159.401981,45.742 163.218,45.742 C166.468683,45.742 169.418987,46.2719947 172.069,47.332 C174.719014,48.3920053 176.980324,49.8936569 178.853,51.837 C180.725676,53.780343 182.174329,56.0946532 183.199,58.78 C184.223672,61.4653468 184.736,64.4333171 184.736,67.684 C184.736,72.0653552 184.047007,76.1639809 182.669,79.98 C181.290994,83.7960191 179.365346,87.1349857 176.892,89.997 C174.418655,92.8590143 171.468351,95.120325 168.041,96.781 C164.61365,98.441675 160.850688,99.272 156.752,99.272 C152.935981,99.272 149.36735,98.4240085 146.046,96.728 C142.724651,95.0319915 140.216009,92.5940159 138.52,89.414 L138.308,89.414 L136.824,98 L125.058,98 L139.156,17.864 L151.664,17.864 L144.668,55.282 L144.88,55.282 Z M172.016,69.168 C172.016,65.4226479 170.938345,62.2780127 168.783,59.734 C166.627656,57.1899873 163.536021,55.918 159.508,55.918 C157.034655,55.918 154.702678,56.4479947 152.512,57.508 C150.321323,58.5680053 148.431008,60.0166575 146.841,61.854 C145.250993,63.6913425 143.996672,65.8289878 143.078,68.267 C142.159329,70.7050122 141.7,73.2666532 141.7,75.952 C141.7,79.8386861 142.865989,83.0186543 145.198,85.492 C147.530012,87.9653457 150.674647,89.202 154.632,89.202 C157.24668,89.202 159.631656,88.6720053 161.787,87.612 C163.942345,86.5519947 165.77966,85.121009 167.299,83.319 C168.818341,81.516991 169.98433,79.3970122 170.797,76.959 C171.609671,74.5209878 172.016,71.9240138 172.016,69.168 Z M218.108001,90.05 C216.341325,92.8060138 214.097681,95.049658 211.377001,96.781 C208.65632,98.512342 205.38802,99.378 201.572001,99.378 C198.74532,99.378 196.289678,98.9540042 194.205001,98.106 C192.120324,97.2579958 190.389008,96.1273404 189.011001,94.714 C187.632994,93.3006596 186.608337,91.622343 185.937001,89.679 C185.265664,87.7356569 184.930001,85.7040106 184.930001,83.584 C184.930001,81.8173245 185.071333,80.2273404 185.354001,78.814 L190.972001,47.12 L203.374001,47.12 L198.498001,75.104 C198.356667,75.9520042 198.233001,76.7999958 198.127001,77.648 C198.021,78.4960042 197.968001,79.3439958 197.968001,80.192 C197.968001,82.4533446 198.568661,84.449658 199.770001,86.181 C200.97134,87.912342 203.161985,88.778 206.342001,88.778 C208.320677,88.778 210.104993,88.3893372 211.695001,87.612 C213.285009,86.8346628 214.662995,85.7923399 215.829001,84.485 C216.995007,83.1776601 217.948997,81.7113415 218.691001,80.086 C219.433004,78.4606585 219.945333,76.8000085 220.228001,75.104 L225.210001,47.12 L237.612001,47.12 L230.616001,87.082 C230.333333,88.4246734 230.033002,90.1559894 229.715001,92.276 C229.396999,94.3960106 229.167335,96.3039915 229.026001,98 L217.366001,98 C217.436668,97.2226628 217.578,96.003675 217.790001,94.343 C218.002002,92.682325 218.178667,91.2513393 218.320001,90.05 L218.108001,90.05 Z M236.110001,98 L250.208001,17.864 L262.716001,17.864 L248.512001,98 L236.110001,98 Z M290.788001,65.776 C290.929335,64.9279958 291.017668,64.2743356 291.053001,63.815 C291.088335,63.3556644 291.106001,62.9140021 291.106001,62.49 C291.106001,60.0166543 290.311009,58.2500053 288.721001,57.19 C287.130993,56.1299947 284.78135,55.6 281.672001,55.6 C279.198655,55.6 276.637014,56.0769952 273.987001,57.031 C271.336988,57.9850048 268.987345,59.2039926 266.938001,60.688 L262.168001,52.314 C265.065349,50.2646564 268.368983,48.6570058 272.079001,47.491 C275.78902,46.3249942 279.587315,45.742 283.474001,45.742 C285.87668,45.742 288.261656,46.0069973 290.629001,46.537 C292.996346,47.0670026 295.116325,47.9326607 296.989001,49.134 C298.861677,50.3353393 300.363329,51.9076569 301.494001,53.851 C302.624673,55.794343 303.190001,58.2146522 303.190001,61.112 C303.190001,61.7480032 303.154668,62.5253287 303.084001,63.444 C303.013334,64.3626713 302.907335,65.1753298 302.766001,65.882 L299.056001,86.552 C298.702666,88.5306766 298.402336,90.5799894 298.155001,92.7 C297.907667,94.8200106 297.784001,96.5866596 297.784001,98 L286.336001,98 C286.336001,96.0919905 286.547999,94.0780106 286.972001,91.958 L286.760001,91.958 C282.802648,96.6926903 277.290703,99.06 270.224001,99.06 C268.457326,99.06 266.620011,98.8480021 264.712001,98.424 C262.803992,97.9999979 261.072676,97.2756718 259.518001,96.251 C257.963327,95.2263282 256.691339,93.848342 255.702001,92.117 C254.712663,90.385658 254.218001,88.2126797 254.218001,85.598 C254.218001,81.4286458 255.33099,78.0543462 257.557001,75.475 C259.783012,72.8956538 262.66265,70.8816739 266.196001,69.433 C269.729352,67.9843261 273.668979,67.0126691 278.015001,66.518 C282.361023,66.0233309 286.618647,65.776 290.788001,65.776 Z M288.138001,74.68 C285.735322,74.68 283.244347,74.7683324 280.665001,74.945 C278.085655,75.1216675 275.718345,75.5279968 273.563001,76.164 C271.407657,76.8000032 269.641008,77.7009942 268.263001,78.867 C266.884994,80.0330058 266.196001,81.6053234 266.196001,83.584 C266.196001,84.7853393 266.425666,85.7923293 266.885001,86.605 C267.344337,87.4176707 267.962664,88.0713309 268.740001,88.566 C269.517338,89.0606691 270.400663,89.4139989 271.390001,89.626 C272.379339,89.8380011 273.403996,89.944 274.464001,89.944 C276.372011,89.944 278.156326,89.6260032 279.817001,88.99 C281.477676,88.3539968 282.926328,87.4883388 284.163001,86.393 C285.399674,85.2976612 286.42433,84.0256739 287.237001,82.577 C288.049672,81.1283261 288.632666,79.5560085 288.986001,77.86 L289.622001,74.68 L288.138001,74.68 Z" id="Nebula"></path>
            <polygon id="Path-Copy" stroke="#232222" transform="translate(73.233813, 18.203195) rotate(100.000000) translate(-73.233813, -18.203195) " points="88.9838127 12.9409321 68.8973262 12.9409321 71.3796068 4.59764201 57.4838127 19.0132079 71.3796068 31.8087477 68.8973262 24.7849726 88.9838127 24.7849726"></polygon>
        </g>
    </g>
</svg>